<svg width="36" height="36" viewBox="0 0 36 36" fill="none" xmlns="http://www.w3.org/2000/svg">
<mask id="mask0_252_642" style="mask-type:alpha" maskUnits="userSpaceOnUse" x="0" y="0" width="36" height="36">
<rect width="36" height="36" fill="#D9D9D9"/>
</mask>
<g mask="url(#mask0_252_642)">
<path d="M18 31.4996L15.825 29.5496C13.3 27.2746 11.2125 25.3121 9.5625 23.6621C7.9125 22.0121 6.6 20.5306 5.625 19.2176C4.65 17.9056 3.969 16.6996 3.582 15.5996C3.194 14.4996 3 13.3746 3 12.2246C3 9.87461 3.7875 7.91211 5.3625 6.33711C6.9375 4.76211 8.9 3.97461 11.25 3.97461C12.55 3.97461 13.7875 4.24961 14.9625 4.79961C16.1375 5.34961 17.15 6.12461 18 7.12461C18.85 6.12461 19.8625 5.34961 21.0375 4.79961C22.2125 4.24961 23.45 3.97461 24.75 3.97461C27.1 3.97461 29.0625 4.76211 30.6375 6.33711C32.2125 7.91211 33 9.87461 33 12.2246C33 13.3746 32.8065 14.4996 32.4195 15.5996C32.0315 16.6996 31.35 17.9056 30.375 19.2176C29.4 20.5306 28.0875 22.0121 26.4375 23.6621C24.7875 25.3121 22.7 27.2746 20.175 29.5496L18 31.4996ZM18 27.4496C20.4 25.2996 22.375 23.4556 23.925 21.9176C25.475 20.3806 26.7 19.0436 27.6 17.9066C28.5 16.7686 29.125 15.7556 29.475 14.8676C29.825 13.9806 30 13.0996 30 12.2246C30 10.7246 29.5 9.47461 28.5 8.47461C27.5 7.47461 26.25 6.97461 24.75 6.97461C23.575 6.97461 22.4875 7.30561 21.4875 7.96761C20.4875 8.63061 19.8 9.47461 19.425 10.4996H16.575C16.2 9.47461 15.5125 8.63061 14.5125 7.96761C13.5125 7.30561 12.425 6.97461 11.25 6.97461C9.75 6.97461 8.5 7.47461 7.5 8.47461C6.5 9.47461 6 10.7246 6 12.2246C6 13.0996 6.175 13.9806 6.525 14.8676C6.875 15.7556 7.5 16.7686 8.4 17.9066C9.3 19.0436 10.525 20.3806 12.075 21.9176C13.625 23.4556 15.6 25.2996 18 27.4496Z" fill="#FFF8EE"/>
</g>
</svg>
