<svg width="36" height="36" viewBox="0 0 36 36" fill="none" xmlns="http://www.w3.org/2000/svg">
<mask id="mask0_252_645" style="mask-type:alpha" maskUnits="userSpaceOnUse" x="0" y="0" width="36" height="36">
<rect width="36" height="36" fill="#D9D9D9"/>
</mask>
<g mask="url(#mask0_252_645)">
<path d="M18 33C16.175 32.775 14.3625 32.281 12.5625 31.518C10.7625 30.756 9.156 29.6625 7.743 28.2375C6.331 26.8125 5.1875 25.0125 4.3125 22.8375C3.4375 20.6625 3 18.05 3 15V13.5H4.5C5.775 13.5 7.0875 13.6625 8.4375 13.9875C9.7875 14.3125 11.05 14.8 12.225 15.45C12.525 13.3 13.2065 11.0935 14.2695 8.8305C15.3315 6.5685 16.575 4.625 18 3C19.425 4.625 20.669 6.5685 21.732 8.8305C22.794 11.0935 23.475 13.3 23.775 15.45C24.95 14.8 26.2125 14.3125 27.5625 13.9875C28.9125 13.6625 30.225 13.5 31.5 13.5H33V15C33 18.05 32.5625 20.6625 31.6875 22.8375C30.8125 25.0125 29.6685 26.8125 28.2555 28.2375C26.8435 29.6625 25.244 30.756 23.457 31.518C21.669 32.281 19.85 32.775 18 33ZM17.925 29.925C17.65 25.775 16.419 22.6375 14.232 20.5125C12.044 18.3875 9.325 17.075 6.075 16.575C6.35 20.85 7.619 24.0375 9.882 26.1375C12.144 28.2375 14.825 29.5 17.925 29.925ZM18 20.4C18.375 19.85 18.8315 19.281 19.3695 18.693C19.9065 18.106 20.425 17.6 20.925 17.175C20.875 15.75 20.5935 14.2625 20.0805 12.7125C19.5685 11.1625 18.875 9.65 18 8.175C17.125 9.65 16.4315 11.1625 15.9195 12.7125C15.4065 14.2625 15.125 15.75 15.075 17.175C15.575 17.6 16.1 18.106 16.65 18.693C17.2 19.281 17.65 19.85 18 20.4ZM20.925 29.25C21.85 28.95 22.8125 28.5125 23.8125 27.9375C24.8125 27.3625 25.744 26.581 26.607 25.593C27.469 24.606 28.2065 23.375 28.8195 21.9C29.4315 20.425 29.8 18.65 29.925 16.575C27.575 16.925 25.5125 17.706 23.7375 18.918C21.9625 20.131 20.6 21.675 19.65 23.55C19.95 24.35 20.2065 25.225 20.4195 26.175C20.6315 27.125 20.8 28.15 20.925 29.25Z" fill="#FFF8EE"/>
</g>
</svg>
