<svg width="36" height="36" viewBox="0 0 36 36" fill="none" xmlns="http://www.w3.org/2000/svg">
<mask id="mask0_252_620" style="mask-type:alpha" maskUnits="userSpaceOnUse" x="0" y="0" width="36" height="36">
<rect width="36" height="36" fill="#D9D9D9"/>
</mask>
<g mask="url(#mask0_252_620)">
<path d="M33 15L32.0625 12.9375L30 12L32.0625 11.0625L33 9L33.9375 11.0625L36 12L33.9375 12.9375L33 15ZM28.5 9L27.075 5.925L24 4.5L27.075 3.075L28.5 0L29.925 3.075L33 4.5L29.925 5.925L28.5 9ZM13.5 33C12.675 33 11.969 32.7065 11.382 32.1195C10.794 31.5315 10.5 30.825 10.5 30H16.5C16.5 30.825 16.2065 31.5315 15.6195 32.1195C15.0315 32.7065 14.325 33 13.5 33ZM7.5 28.5V25.5H19.5V28.5H7.5ZM7.875 24C6.15 22.975 4.7815 21.6 3.7695 19.875C2.7565 18.15 2.25 16.275 2.25 14.25C2.25 11.125 3.344 8.469 5.532 6.282C7.719 4.094 10.375 3 13.5 3C16.625 3 19.281 4.094 21.468 6.282C23.656 8.469 24.75 11.125 24.75 14.25C24.75 16.275 24.244 18.15 23.232 19.875C22.219 21.6 20.85 22.975 19.125 24H7.875ZM8.775 21H18.225C19.35 20.2 20.2185 19.2125 20.8305 18.0375C21.4435 16.8625 21.75 15.6 21.75 14.25C21.75 11.95 20.95 10 19.35 8.4C17.75 6.8 15.8 6 13.5 6C11.2 6 9.25 6.8 7.65 8.4C6.05 10 5.25 11.95 5.25 14.25C5.25 15.6 5.5565 16.8625 6.1695 18.0375C6.7815 19.2125 7.65 20.2 8.775 21Z" fill="#FFF8EE"/>
</g>
</svg>
